<?xml version="1.0" encoding="utf-8"?>
<!-- Generator: Adobe Illustrator 25.4.0, SVG Export Plug-In . SVG Version: 6.00 Build 0)  -->
<svg version="1.1" id="Layer_1" xmlns="http://www.w3.org/2000/svg" xmlns:xlink="http://www.w3.org/1999/xlink" x="0px" y="0px"
	 viewBox="0 0 24 24" style="enable-background:new 0 0 24 24;" xml:space="preserve">
<style type="text/css">
	.st0{fill:#10497E;}
	.st1{fill:#EC8222;}
	.st2{fill-rule:evenodd;clip-rule:evenodd;fill:#10497E;}
</style>
<path class="st0" d="M14.5,13.8c0.7,1,1.8,1.6,3.1,1.6c1.4,0,2.6-0.8,3.3-1.9l2.2,1.5c-1.1,1.9-3.2,3.1-5.5,3.1
	c-1.7,0-3.3-0.7-4.4-1.8C13.7,15.6,14.2,14.7,14.5,13.8L14.5,13.8z"/>
<path class="st1" d="M17.6,5.2c2.3,0,4.4,1.2,5.5,3.1l-2.2,1.5c-0.6-1.1-1.9-1.9-3.3-1.9c-2.1,0-3.7,1.7-3.8,3.7v0.1l0,0
	c0,3.5-2.9,6.4-6.4,6.4c-3.6,0-6.4-2.9-6.4-6.4c0-3.6,2.9-6.4,6.4-6.4c1.7,0,3.3,0.7,4.4,1.8c-0.6,0.7-1.1,1.6-1.3,2.5
	c-0.7-1-1.8-1.6-3.1-1.6c-2.1,0-3.8,1.7-3.8,3.8c0,2.1,1.7,3.8,3.8,3.8c2.1,0,3.8-1.7,3.8-3.8v0c0,0,0-0.1,0-0.1h0
	c0-0.6,0.1-1.2,0.3-1.7l0,0l0,0l0,0l0,0l0,0l0,0l0,0l0,0l0,0l0-0.1l0,0l0,0l0,0l0,0l0-0.1l0,0l0,0l0,0l0-0.1l0,0l0-0.1l0,0l0,0
	l0-0.1l0,0l0,0l0,0l0-0.1l0,0l0.1-0.1l0,0L12,8.4l0,0l0.1-0.1l0,0c0.1-0.1,0.2-0.2,0.2-0.4l0,0c0.1-0.1,0.1-0.2,0.2-0.2l0-0.1
	C13.8,6.1,15.6,5.2,17.6,5.2L17.6,5.2z"/>
<path class="st2" d="M7.4,9.9c0.6,0,1.1,0.5,1.1,1.1c0,0,0,0,0,0c0,0.4-0.2,0.8-0.6,1v1.1c0,0.3-0.3,0.6-0.6,0.6h0
	c-0.3,0-0.6-0.3-0.6-0.6V12c-0.5-0.3-0.7-1-0.4-1.5C6.6,10.1,7,9.9,7.4,9.9L7.4,9.9z"/>
</svg>
