<?xml version="1.0" encoding="utf-8"?>
<!-- Generator: Adobe Illustrator 25.4.0, SVG Export Plug-In . SVG Version: 6.00 Build 0)  -->
<svg version="1.1" id="Layer_1" xmlns="http://www.w3.org/2000/svg" xmlns:xlink="http://www.w3.org/1999/xlink" x="0px" y="0px"
	 viewBox="0 0 3112.5 1811.3" style="enable-background:new 0 0 3112.5 1811.3;" xml:space="preserve">
<style type="text/css">
	.st0{fill:#FFFFFF;}
	.st1{fill-rule:evenodd;clip-rule:evenodd;fill:#FFFFFF;}
</style>
<path class="st0" d="M1904.9,1205.7c95.2,137.6,254.1,227.7,434.2,227.7c196.7,0,368.4-107.7,458.9-267.4l314.5,210.8
	c-159.1,260.6-445.9,434.5-773.4,434.5c-241.6,0-461.1-94.7-623.3-248.6C1801.5,1457.1,1865.7,1335.9,1904.9,1205.7L1904.9,1205.7z"
	/>
<path class="st0" d="M2339.1,0c327.5,0,614.3,174.1,773.4,434.5L2798,645.3c-90.6-159.6-262.3-267.4-458.9-267.4
	c-290.8,0-526.7,235-527.8,525.6v7.6l0,0c-3,497.6-407.2,900.2-905.7,900.2C405.6,1811.3,0,1405.9,0,905.6C0,405.6,405.6,0,905.6,0
	c241.6,0,460.9,94.7,623.3,248.7c-84.6,104.5-149.6,225.2-189.1,356.9c-95.2-137.4-254.1-227.7-434.2-227.7
	c-291.4,0-527.8,236.4-527.8,527.8c0,291.6,236.4,527.8,527.8,527.8c291.6,0,527.8-236.1,527.8-527.8v-3.3c0-6.8-0.3-13.6-0.5-20.4
	h0.8c2.1-82.3,15.3-163.9,39.4-242.7l1.6-4.6l1.6-5.4l1.6-5.2l1.9-5.2l1.6-5.2l1.9-5.4l1.6-5.2l1.9-5.2l0.3-0.3l3-8.7l0.5-1.4
	l1.9-5.2l2.2-5.2l0,0l3.3-8.4l0.8-1.6l1.9-5.2l2.2-5.2l4.4-10.1l2.2-5.2l6.8-15l2.4-5.2l2.2-4.9l4.6-9.5l0.3-0.3l2.5-4.9l2.4-4.9
	l5.2-9.8l2.4-4.9l7.9-14.7l2.7-4.6l8.2-14.4l2.7-4.6l8.7-14.2l2.7-4.9c10.9-16.9,22.1-33.7,34-50l3.3-4.6
	c8.7-11.7,17.7-23.4,26.9-34.8l6.5-8.2C1808.3,127.3,2058.9,0,2339.1,0L2339.1,0z"/>
<path class="st1" d="M904,659.5c86.1,0,155.9,69.8,155.9,155.8c0,0,0,0,0,0c0,57.4-31.3,107.5-77.5,134.7v150.7
	c-0.1,43.2-35.1,78.2-78.3,78.4h-0.3c-43.2-0.1-78.2-35.1-78.3-78.4V950c-74.4-43.4-99.4-138.9-56-213.3
	C797.4,688.9,848.6,659.5,904,659.5L904,659.5z"/>
</svg>
